<svg width="138" height="138" viewBox="0 0 138 138" fill="none" xmlns="http://www.w3.org/2000/svg">
<path d="M118.835 30.6664H88.168V38.3331H118.835V118.833H88.168V126.5H126.501V38.3331C126.501 36.2998 125.694 34.3497 124.256 32.912C122.818 31.4742 120.868 30.6664 118.835 30.6664Z" fill="black"/>
<path d="M76.2054 11.5001H23.4587C21.3034 11.5001 19.2363 12.3563 17.7123 13.8803C16.1882 15.4044 15.332 17.4714 15.332 19.6267V126.5H84.332V19.6267C84.332 17.4714 83.4758 15.4044 81.9518 13.8803C80.4277 12.3563 78.3607 11.5001 76.2054 11.5001ZM76.6654 118.833H65.1654V107.333H34.4987V118.833H22.9987V19.6267C22.9987 19.5663 23.0106 19.5065 23.0337 19.4507C23.0568 19.3949 23.0907 19.3442 23.1334 19.3015C23.1761 19.2587 23.2269 19.2249 23.2827 19.2017C23.3385 19.1786 23.3983 19.1667 23.4587 19.1667H76.2054C76.2658 19.1667 76.3256 19.1786 76.3814 19.2017C76.4372 19.2249 76.4879 19.2587 76.5306 19.3015C76.5733 19.3442 76.6072 19.3949 76.6303 19.4507C76.6535 19.5065 76.6654 19.5663 76.6654 19.6267V118.833Z" fill="black"/>
<path d="M30.668 30.6664H38.3346V38.3331H30.668V30.6664Z" fill="black"/>
<path d="M46 30.6664H53.6667V38.3331H46V30.6664Z" fill="black"/>
<path d="M61.332 30.6664H68.9987V38.3331H61.332V30.6664Z" fill="black"/>
<path d="M30.668 49.8334H38.3346V57.5H30.668V49.8334Z" fill="black"/>
<path d="M46 49.8334H53.6667V57.5H46V49.8334Z" fill="black"/>
<path d="M61.332 49.8334H68.9987V57.5H61.332V49.8334Z" fill="black"/>
<path d="M30.668 68.9998H38.3346V76.6664H30.668V68.9998Z" fill="black"/>
<path d="M46 68.9998H53.6667V76.6664H46V68.9998Z" fill="black"/>
<path d="M61.332 68.9998H68.9987V76.6664H61.332V68.9998Z" fill="black"/>
<path d="M30.668 88.1667H38.3346V95.8334H30.668V88.1667Z" fill="black"/>
<path d="M46 88.1667H53.6667V95.8334H46V88.1667Z" fill="black"/>
<path d="M61.332 88.1667H68.9987V95.8334H61.332V88.1667Z" fill="black"/>
<path d="M88.168 49.8334H95.8346V57.5H88.168V49.8334Z" fill="black"/>
<path d="M103.5 49.8334H111.167V57.5H103.5V49.8334Z" fill="black"/>
<path d="M88.168 68.9998H95.8346V76.6664H88.168V68.9998Z" fill="black"/>
<path d="M103.5 68.9998H111.167V76.6664H103.5V68.9998Z" fill="black"/>
<path d="M88.168 88.1667H95.8346V95.8334H88.168V88.1667Z" fill="black"/>
<path d="M103.5 88.1667H111.167V95.8334H103.5V88.1667Z" fill="black"/>
</svg>
