<svg width="74" height="74" viewBox="0 0 74 74" fill="none" xmlns="http://www.w3.org/2000/svg">
<g clip-path="url(#clip0_1384_3021)">
<rect width="74" height="74" rx="37" fill="#2D4C7C"/>
<path fill-rule="evenodd" clip-rule="evenodd" d="M37 69.375C45.5864 69.375 53.8211 65.9641 59.8926 59.8926C65.9641 53.8211 69.375 45.5864 69.375 37C69.375 28.4136 65.9641 20.1789 59.8926 14.1074C53.8211 8.03593 45.5864 4.625 37 4.625C28.4136 4.625 20.1789 8.03593 14.1074 14.1074C8.03593 20.1789 4.625 28.4136 4.625 37C4.625 45.5864 8.03593 53.8211 14.1074 59.8926C20.1789 65.9641 28.4136 69.375 37 69.375ZM37 74C46.813 74 56.2241 70.1018 63.163 63.163C70.1018 56.2241 74 46.813 74 37C74 27.187 70.1018 17.7759 63.163 10.837C56.2241 3.8982 46.813 0 37 0C27.187 0 17.7759 3.8982 10.837 10.837C3.8982 17.7759 0 27.187 0 37C0 46.813 3.8982 56.2241 10.837 63.163C17.7759 70.1018 27.187 74 37 74Z" fill="#046ED0"/>
<path fill-rule="evenodd" clip-rule="evenodd" d="M18.5 37.0029C18.5 37.6162 18.7436 38.2044 19.1773 38.6381C19.611 39.0718 20.1992 39.3154 20.8125 39.3154H47.6051L37.6753 49.2407C37.4602 49.4557 37.2897 49.7109 37.1733 49.9918C37.057 50.2728 36.9971 50.5739 36.9971 50.8779C36.9971 51.182 37.057 51.4831 37.1733 51.764C37.2897 52.0449 37.4602 52.3002 37.6753 52.5152C37.8903 52.7302 38.1455 52.9007 38.4264 53.0171C38.7073 53.1335 39.0084 53.1933 39.3125 53.1933C39.6166 53.1933 39.9177 53.1335 40.1986 53.0171C40.4795 52.9007 40.7347 52.7302 40.9498 52.5152L54.8248 38.6402C55.0401 38.4254 55.211 38.1702 55.3275 37.8892C55.4441 37.6083 55.5041 37.3071 55.5041 37.0029C55.5041 36.6987 55.4441 36.3976 55.3275 36.1166C55.211 35.8357 55.0401 35.5805 54.8248 35.3657L40.9498 21.4907C40.7347 21.2757 40.4795 21.1051 40.1986 20.9888C39.9177 20.8724 39.6166 20.8125 39.3125 20.8125C39.0084 20.8125 38.7073 20.8724 38.4264 20.9888C38.1455 21.1051 37.8903 21.2757 37.6753 21.4907C37.4602 21.7057 37.2897 21.9609 37.1733 22.2418C37.057 22.5228 36.9971 22.8239 36.9971 23.1279C36.9971 23.432 37.057 23.7331 37.1733 24.014C37.2897 24.2949 37.4602 24.5502 37.6753 24.7652L47.6051 34.6904H20.8125C20.1992 34.6904 19.611 34.9341 19.1773 35.3677C18.7436 35.8014 18.5 36.3896 18.5 37.0029Z" fill="white"/>
</g>
<defs>
<clipPath id="clip0_1384_3021">
<rect width="74" height="74" rx="37" fill="white"/>
</clipPath>
</defs>
</svg>
