<svg width="124" height="124" viewBox="0 0 124 124" fill="none" xmlns="http://www.w3.org/2000/svg">
<rect width="124" height="124" rx="40" fill="#046ED0" fill-opacity="0.2"/>
<path d="M89.6863 29.7012H62.0018C60.7784 29.7024 59.6055 30.1889 58.7405 31.054C57.8754 31.919 57.3889 33.0919 57.3877 34.3153V57.3857H34.3172C33.0939 57.3869 31.921 57.8735 31.0559 58.7385C30.1909 59.6036 29.7043 60.7765 29.7031 61.9998V94.2985H94.3004V34.3153C94.299 33.092 93.8124 31.9192 92.9474 31.0542C92.0824 30.1892 90.9096 29.7026 89.6863 29.7012ZM45.8524 89.6844V73.535H55.0806V89.6844H45.8524ZM89.6863 89.6844H59.6947V71.228C59.6947 70.6161 59.4517 70.0293 59.019 69.5967C58.5864 69.164 57.9995 68.921 57.3877 68.921H43.5454C42.9335 68.921 42.3467 69.164 41.9141 69.5967C41.4814 70.0293 41.2384 70.6161 41.2384 71.228V89.6844H34.3172V61.9998H62.0018V34.3153H89.6863V89.6844Z" fill="#2D4C7C"/>
<path d="M66.6172 43.5431H71.2313V48.1572H66.6172V43.5431Z" fill="#2D4C7C"/>
<path d="M80.459 43.5431H85.0731V48.1572H80.459V43.5431Z" fill="#2D4C7C"/>
<path d="M66.6172 57.3857H71.2313V61.9998H66.6172V57.3857Z" fill="#2D4C7C"/>
<path d="M80.459 57.3857H85.0731V61.9998H80.459V57.3857Z" fill="#2D4C7C"/>
<path d="M66.6172 71.2267H71.2313V75.8408H66.6172V71.2267Z" fill="#2D4C7C"/>
<path d="M80.459 71.2267H85.0731V75.8408H80.459V71.2267Z" fill="#2D4C7C"/>
<path d="M29.7031 48.1575H41.2384V52.7705H29.7031V48.1575Z" fill="#2D4C7C"/>
<path d="M48.1602 29.7012H52.7742V41.2364H48.1602V29.7012Z" fill="#2D4C7C"/>
<path d="M34.3184 37.5771L37.5807 34.3148L45.8536 42.5877L42.5913 45.85L34.3184 37.5771Z" fill="#2D4C7C"/>
</svg>
