<svg width="46" height="46" viewBox="0 0 46 46" fill="none" xmlns="http://www.w3.org/2000/svg">
<rect width="46" height="46" rx="12" fill="#98B1C8"/>
<path d="M17.5855 35.0511C19.3776 35.3493 21.1912 35.4994 23.008 35.5C24.8246 35.4994 26.6381 35.3493 28.4301 35.0511C28.6772 34.9835 28.9038 34.8561 29.0901 34.6803C29.2764 34.5044 29.4165 34.2854 29.4982 34.0426C29.5799 33.7998 29.6005 33.5406 29.5584 33.2879C29.5162 33.0351 29.4125 32.7967 29.2565 32.5935C29.1004 32.3904 28.8968 32.2287 28.6635 32.1229C28.4302 32.017 28.1744 31.9702 27.9188 31.9865C24.6681 32.5256 21.3509 32.5256 18.1003 31.9865C17.0813 31.8196 16.1404 31.3373 15.41 30.6075C14.6795 29.8777 14.1964 28.9372 14.0285 27.9183C13.4869 24.6677 13.4869 21.3498 14.0285 18.0991C14.1949 17.0799 14.6769 16.1386 15.4066 15.408C16.1365 14.6773 17.0773 14.1943 18.0964 14.0271C21.347 13.488 24.6643 13.488 27.9149 14.0271C28.9338 14.1939 29.8748 14.6762 30.6052 15.4061C31.3357 16.1358 31.8189 17.0763 31.9866 18.0952C32.2514 19.7188 32.3819 21.3614 32.3769 23.0064V23.9825C32.3769 24.6101 32.0423 25.19 31.4988 25.5041C30.9553 25.8181 30.2854 25.818 29.742 25.5041C29.1986 25.1901 28.8636 24.6101 28.8636 23.9825V23.0064C28.8669 22.1095 28.6647 21.2238 28.2728 20.4171C27.8808 19.6104 27.3093 18.9042 26.6022 18.3526C25.895 17.8008 25.071 17.4184 24.1932 17.2345C23.3154 17.0505 22.4071 17.07 21.538 17.2915C20.6689 17.5129 19.862 17.9303 19.1792 18.5118C18.4963 19.0933 17.9557 19.8234 17.5987 20.6462C17.2416 21.469 17.0777 22.3627 17.1195 23.2586C17.1612 24.1546 17.4075 25.0291 17.8395 25.8151C18.2715 26.6012 18.8776 27.2779 19.6116 27.7934C20.3455 28.3089 21.1877 28.6496 22.0736 28.7893C22.9595 28.9289 23.8657 28.8639 24.7226 28.5992C25.5795 28.3344 26.3644 27.877 27.0172 27.262C27.4561 27.7466 27.988 28.138 28.5813 28.4127C29.1746 28.6875 29.8171 28.84 30.4706 28.8611C31.124 28.8823 31.7751 28.7717 32.3849 28.5359C32.9947 28.3001 33.5508 27.9439 34.0201 27.4887C34.4894 27.0335 34.8623 26.4885 35.1166 25.8861C35.3709 25.2837 35.5012 24.6363 35.5 23.9825V22.2257C35.4648 20.6702 35.3201 19.119 35.0669 17.5838C34.7926 15.9228 34.0049 14.3895 32.8145 13.1991C31.6243 12.0086 30.091 11.2209 28.4301 10.9466C24.8397 10.3511 21.1757 10.3511 17.5853 10.9466C15.9243 11.2205 14.3908 12.008 13.2003 13.1984C12.0099 14.3889 11.2226 15.9226 10.9489 17.5837C10.3504 21.1741 10.3504 24.8389 10.9489 28.4293C11.2262 30.0874 12.015 31.6173 13.2051 32.8047C14.3951 33.992 15.9268 34.7778 17.5855 35.0511ZM23.008 25.7397C22.6491 25.7398 22.2937 25.6691 21.9622 25.5318C21.6306 25.3944 21.3294 25.1931 21.0757 24.9393C20.5674 24.4259 20.2832 23.7321 20.285 23.0097C20.2868 22.2873 20.5746 21.5949 21.0854 21.0841C21.5962 20.5733 22.2884 20.2855 23.0108 20.2837C23.7332 20.2819 24.4269 20.5662 24.9403 21.0744C25.4525 21.587 25.7403 22.282 25.7404 23.0068C25.7404 23.3656 25.6698 23.721 25.5325 24.0526C25.3952 24.3841 25.1939 24.6854 24.9402 24.9392C24.6864 25.193 24.3852 25.3943 24.0537 25.5317C23.7222 25.669 23.3668 25.7397 23.008 25.7397Z" fill="white" stroke="#98B1C8"/>
</svg>
