<svg width="149" height="151" viewBox="0 0 149 151" fill="none" xmlns="http://www.w3.org/2000/svg">
<g filter="url(#filter0_d_501_135)">
<circle cx="74.5" cy="70.5" r="70.5" fill="white"/>
<circle cx="74.5" cy="70.5" r="69" stroke="#046ED0" stroke-width="3"/>
</g>
<path d="M63.6879 81.3086C54.069 81.3086 34.8672 86.1361 34.8672 95.719V102.924H92.5087V95.719C92.5087 86.1361 73.3069 81.3086 63.6879 81.3086Z" fill="black"/>
<path d="M110.881 51.9121C110.917 51.5158 110.953 51.1195 110.953 50.6872C110.953 50.2549 110.917 49.8586 110.845 49.4623L113.511 47.3728C113.763 47.1927 113.799 46.8324 113.655 46.5802L111.133 42.2211C110.989 41.9329 110.629 41.8608 110.376 41.9329L107.278 43.1938C106.63 42.6894 105.909 42.2932 105.153 41.9689L104.684 38.6185C104.612 38.2943 104.36 38.0781 104.036 38.0781H98.9923C98.668 38.0781 98.4159 38.2943 98.3798 38.6185L97.9115 41.9689C97.155 42.2932 96.4344 42.7255 95.786 43.1938L92.6517 41.9329C92.3635 41.8248 92.0393 41.9329 91.8952 42.2211L89.3733 46.5802C89.2292 46.8685 89.2653 47.1927 89.5175 47.3728L92.1834 49.4623C92.1113 49.8586 92.0753 50.2909 92.0753 50.6872C92.0753 51.0835 92.1113 51.5158 92.1834 51.9121L89.5175 54.0016C89.2653 54.1817 89.2292 54.542 89.3733 54.7942L91.8952 59.1533C92.0393 59.4415 92.3995 59.5136 92.6517 59.4415L95.786 58.1806C96.4344 58.685 97.155 59.0813 97.9115 59.4055L98.3798 62.7559C98.4159 63.0801 98.668 63.2963 98.9923 63.2963H104.036C104.36 63.2963 104.612 63.0801 104.648 62.7559L105.117 59.4055C105.873 59.0813 106.594 58.6489 107.242 58.1806L110.376 59.4415C110.665 59.5496 110.989 59.4415 111.133 59.1533L113.655 54.7942C113.799 54.506 113.763 54.1817 113.511 54.0016L110.881 51.9121ZM101.514 55.1904C99.0283 55.1904 97.0108 53.173 97.0108 50.6872C97.0108 48.2014 99.0283 46.184 101.514 46.184C104 46.184 106.017 48.2014 106.017 50.6872C106.017 53.173 104 55.1904 101.514 55.1904Z" fill="black"/>
<path d="M103.027 69.3473L101.226 66.213C101.117 65.9969 100.865 65.9248 100.685 65.9969L98.4516 66.8975C97.9832 66.5373 97.4789 66.2491 96.9385 66.0329L96.6142 63.6552C96.5422 63.439 96.326 63.2949 96.1099 63.2949H92.5073C92.2911 63.2949 92.111 63.439 92.075 63.6912L91.7507 66.0689C91.2104 66.2851 90.706 66.6093 90.2377 66.9335L88.004 66.0329C87.7879 65.9608 87.5717 66.0329 87.4637 66.249L85.6624 69.3833C85.5543 69.5995 85.5903 69.8156 85.7704 69.9597L87.6798 71.4368C87.6438 71.725 87.6078 72.0132 87.6078 72.3014C87.6078 72.5896 87.6438 72.9138 87.6798 73.166L85.7704 74.6431C85.5903 74.7872 85.5543 75.0394 85.6624 75.2195L87.4637 78.3538C87.5717 78.5699 87.8239 78.642 88.004 78.5699L90.2377 77.6693C90.706 78.0295 91.2104 78.3177 91.7507 78.5339L92.075 80.9116C92.111 81.1638 92.2911 81.3079 92.5073 81.3079H96.1099C96.326 81.3079 96.5422 81.1638 96.5422 80.9116L96.8664 78.5339C97.4068 78.3177 97.9112 77.9935 98.3795 77.6693L100.613 78.5699C100.829 78.642 101.045 78.5699 101.154 78.3538L102.955 75.2195C103.063 75.0034 103.027 74.7872 102.847 74.6431L100.973 73.166C101.009 72.8778 101.045 72.5896 101.045 72.3014C101.045 72.0132 101.009 71.689 100.973 71.4368L102.883 69.9597C103.063 69.8156 103.099 69.5634 103.027 69.3473ZM94.3086 75.2916C92.6514 75.2916 91.3184 73.9226 91.3184 72.3014C91.3184 70.6442 92.6874 69.3113 94.3086 69.3113C95.9297 69.3113 97.2987 70.6802 97.2987 72.3014C97.2987 73.9586 95.9658 75.2916 94.3086 75.2916Z" fill="black"/>
<path d="M48.3434 59.6927H79.0735C80.0462 59.6927 80.8388 58.9001 80.8388 57.9274V57.8553C80.8388 56.8826 80.0462 56.0901 79.0735 56.0901H78.1008C78.1008 50.7582 75.1827 46.1829 70.8956 43.6611V47.0836C70.8956 48.0923 70.1031 48.8849 69.0943 48.8849C68.0856 48.8849 67.293 48.0923 67.293 47.0836V42.1841C66.1402 41.8958 64.9514 41.6797 63.6904 41.6797C62.4295 41.6797 61.2407 41.8958 60.0879 42.1841V47.0836C60.0879 48.0923 59.2953 48.8849 58.2866 48.8849C57.2778 48.8849 56.4853 48.0923 56.4853 47.0836V43.6611C52.1982 46.1829 49.2801 50.7582 49.2801 56.0901H48.3434C47.3707 56.0901 46.5781 56.8826 46.5781 57.8553V57.9634C46.5781 58.9001 47.3707 59.6927 48.3434 59.6927Z" fill="black"/>
<path d="M63.6873 74.1027C70.3881 74.1027 75.9721 69.4914 77.5933 63.2949H49.7812C51.4024 69.4914 56.9864 74.1027 63.6873 74.1027Z" fill="black"/>
<defs>
<filter id="filter0_d_501_135" x="0" y="0" width="149" height="151" filterUnits="userSpaceOnUse" color-interpolation-filters="sRGB">
<feFlood flood-opacity="0" result="BackgroundImageFix"/>
<feColorMatrix in="SourceAlpha" type="matrix" values="0 0 0 0 0 0 0 0 0 0 0 0 0 0 0 0 0 0 127 0" result="hardAlpha"/>
<feOffset dy="6"/>
<feGaussianBlur stdDeviation="2"/>
<feComposite in2="hardAlpha" operator="out"/>
<feColorMatrix type="matrix" values="0 0 0 0 0 0 0 0 0 0 0 0 0 0 0 0 0 0 0.25 0"/>
<feBlend mode="normal" in2="BackgroundImageFix" result="effect1_dropShadow_501_135"/>
<feBlend mode="normal" in="SourceGraphic" in2="effect1_dropShadow_501_135" result="shape"/>
</filter>
</defs>
</svg>
