<svg width="137" height="82" viewBox="0 0 137 82" fill="none" xmlns="http://www.w3.org/2000/svg">
<path d="M92.7608 0H74.4305C72.7234 0 71.0803 0.640171 69.8213 1.79248L48.845 20.9976C48.8237 21.0189 48.8024 21.0616 48.781 21.083C45.2387 24.4118 45.3028 29.7253 48.3329 33.0328C51.043 35.9989 56.7405 36.7885 60.3041 33.609C60.3254 33.5876 60.3681 33.5876 60.3894 33.5663L77.4393 17.9461C78.8264 16.6871 81.0029 16.7725 82.2619 18.1595C83.5423 19.5466 83.4356 21.7018 82.0486 22.9821L76.4791 28.0822L107.549 53.3049C108.168 53.817 108.722 54.3718 109.234 54.948V13.657L97.5834 2.00587C96.3244 0.725527 94.5746 0 92.7608 0ZM116.084 13.6997V61.4777C116.084 65.2547 119.136 68.3062 122.913 68.3062H136.57V13.6997H116.084ZM126.327 61.4777C124.449 61.4777 122.913 59.9413 122.913 58.0635C122.913 56.1857 124.449 54.6493 126.327 54.6493C128.205 54.6493 129.741 56.1857 129.741 58.0635C129.741 59.9413 128.205 61.4777 126.327 61.4777ZM0 68.2849H13.657C17.434 68.2849 20.4855 65.2334 20.4855 61.4564V13.6997H0V68.2849ZM10.2427 54.6493C12.1206 54.6493 13.657 56.1857 13.657 58.0635C13.657 59.9413 12.1206 61.4777 10.2427 61.4777C8.3649 61.4777 6.82849 59.9413 6.82849 58.0635C6.82849 56.1643 8.3649 54.6493 10.2427 54.6493ZM103.26 58.6183L71.4004 32.7554L64.9987 38.6236C58.661 44.4065 48.9517 43.8517 43.2969 37.6847C37.5567 31.4111 38.0048 21.7018 44.2358 15.9829L61.6911 0H43.809C41.9952 0 40.2667 0.725527 38.9864 2.00587L27.314 13.657V61.4351H31.219L50.5308 78.9117C56.3777 83.6703 64.9773 82.7741 69.7359 76.9272L69.7786 76.8845L73.5983 80.1921C76.9912 82.9661 82.0059 82.4327 84.7586 79.0398L91.4591 70.8029L92.6114 71.7418C95.5348 74.1104 99.8453 73.6837 102.214 70.7389L104.241 68.2422C106.631 65.2974 106.183 61.0083 103.26 58.6183Z" fill="black"/>
</svg>
