<svg width="46" height="46" viewBox="0 0 46 46" fill="none" xmlns="http://www.w3.org/2000/svg">
<rect width="46" height="46" rx="12" fill="#98B1C8"/>
<path d="M19.0543 23C19.0543 20.7909 20.8208 18.9997 23.0005 18.9997C25.1801 18.9997 26.9476 20.7909 26.9476 23C26.9476 25.2091 25.1801 27.0003 23.0005 27.0003C20.8208 27.0003 19.0543 25.2091 19.0543 23ZM16.9206 23C16.9206 26.4032 19.6426 29.1619 23.0005 29.1619C26.3584 29.1619 29.0803 26.4032 29.0803 23C29.0803 19.5968 26.3584 16.8381 23.0005 16.8381C19.6426 16.8381 16.9206 19.5968 16.9206 23ZM27.9002 16.5938C27.8999 17.3891 28.5357 18.0341 29.3205 18.0344C30.1052 18.0347 30.7415 17.3903 30.7419 16.595C30.7422 15.7997 30.1063 15.1547 29.3216 15.1544H29.321C28.5367 15.1548 27.9009 15.7989 27.9002 16.5938ZM18.217 32.7677C17.0626 32.7144 16.4352 32.5196 16.0182 32.3549C15.4654 32.1368 15.071 31.877 14.6563 31.4573C14.2416 31.0376 13.9849 30.6382 13.7706 30.078C13.6081 29.6556 13.4158 29.0195 13.3633 27.8495C13.3059 26.5846 13.2944 26.2047 13.2944 23.0001C13.2944 19.7955 13.3069 19.4166 13.3633 18.1507C13.4159 16.9807 13.6096 16.3459 13.7706 15.9222C13.9858 15.362 14.2421 14.9622 14.6563 14.5419C15.0704 14.1216 15.4644 13.8615 16.0182 13.6443C16.435 13.4796 17.0626 13.2847 18.217 13.2315C19.465 13.1733 19.84 13.1617 23.0005 13.1617C26.161 13.1617 26.5363 13.1743 27.7854 13.2315C28.9398 13.2848 29.5662 13.4811 29.9842 13.6443C30.537 13.8615 30.9314 14.1222 31.3461 14.5419C31.7608 14.9616 32.0165 15.362 32.2318 15.9222C32.3943 16.3446 32.5866 16.9807 32.6391 18.1507C32.6965 19.4166 32.7079 19.7955 32.7079 23.0001C32.7079 26.2047 32.6965 26.5836 32.6391 27.8495C32.5865 29.0195 32.3933 29.6554 32.2318 30.078C32.0165 30.6382 31.7602 31.038 31.3461 31.4573C30.932 31.8766 30.537 32.1368 29.9842 32.3549C29.5674 32.5196 28.9398 32.7145 27.7854 32.7677C26.5373 32.8259 26.1624 32.8375 23.0005 32.8375C19.8385 32.8375 19.4647 32.8259 18.217 32.7677ZM18.1189 11.0727C16.8585 11.1308 15.9972 11.3334 15.245 11.63C14.466 11.9364 13.8065 12.3474 13.1475 13.0142C12.4885 13.681 12.0841 14.3504 11.7818 15.1399C11.4891 15.9027 11.2893 16.7752 11.2319 18.0526C11.1735 19.3321 11.1602 19.7412 11.1602 23C11.1602 26.2588 11.1735 26.6679 11.2319 27.9474C11.2893 29.2249 11.4891 30.0973 11.7818 30.8601C12.0841 31.6491 12.4886 32.3193 13.1475 32.9858C13.8064 33.6524 14.466 34.0628 15.245 34.37C15.9986 34.6666 16.8585 34.8692 18.1189 34.9273C19.3821 34.9855 19.785 35 23.0005 35C26.2159 35 26.6195 34.9865 27.882 34.9273C29.1426 34.8692 30.0033 34.6666 30.756 34.37C31.5345 34.0628 32.1944 33.6526 32.8534 32.9858C33.5124 32.319 33.916 31.6491 34.2191 30.8601C34.5118 30.0973 34.7126 29.2248 34.7691 27.9474C34.8265 26.6669 34.8398 26.2588 34.8398 23C34.8398 19.7412 34.8265 19.3321 34.7691 18.0526C34.7117 16.7751 34.5118 15.9022 34.2191 15.1399C33.916 14.3509 33.5114 13.682 32.8534 13.0142C32.1955 12.3463 31.5345 11.9364 30.7569 11.63C30.0033 11.3334 29.1425 11.1299 27.8829 11.0727C26.6205 11.0145 26.2169 11 23.0014 11C19.786 11 19.3821 11.0135 18.1189 11.0727Z" fill="white"/>
</svg>
