<svg width="46" height="46" viewBox="0 0 46 46" fill="none" xmlns="http://www.w3.org/2000/svg">
<rect width="46" height="46" rx="12" fill="#98B1C8"/>
<path fill-rule="evenodd" clip-rule="evenodd" d="M23.1239 15.7304C20.3985 15.7304 18.1891 17.9216 18.1891 20.6245C18.1891 23.3274 20.3985 25.5186 23.1239 25.5186C25.8492 25.5186 28.0586 23.3274 28.0586 20.6245C28.0586 17.9216 25.8492 15.7304 23.1239 15.7304ZM19.8341 20.6245C19.8341 18.8225 21.307 17.3616 23.1239 17.3616C24.9408 17.3616 26.4139 18.8225 26.4139 20.6245C26.4139 22.4265 24.9408 23.8872 23.1239 23.8872C21.307 23.8872 19.8341 22.4265 19.8341 20.6245Z" fill="white"/>
<path fill-rule="evenodd" clip-rule="evenodd" d="M15.2219 28.6237C10.926 24.3633 10.926 17.456 15.2219 13.1954C19.5175 8.93488 26.4823 8.93488 30.7783 13.1954C35.0739 17.4556 35.0739 24.3631 30.7783 28.6237L23.5818 35.761C23.2605 36.0797 22.74 36.0797 22.4188 35.761L15.2219 28.6237ZM16.3849 14.3492C12.7316 17.9727 12.7316 23.847 16.3849 27.4705L23.0003 34.0308L29.6151 27.4705C33.2684 23.8472 33.2684 17.9727 29.6151 14.3492C25.9617 10.7259 20.0384 10.7259 16.3849 14.3492Z" fill="white"/>
</svg>
