<svg width="46" height="46" viewBox="0 0 46 46" fill="none" xmlns="http://www.w3.org/2000/svg">
<rect width="46" height="46" rx="12" fill="#98B1C8"/>
<path d="M10 36.3247L11.8267 29.5668C10.7035 27.5894 10.1049 25.343 10.1111 23.0466C10.1111 15.8506 15.8872 10 22.984 10C26.4275 10 29.6612 11.3578 32.0864 13.8232C34.5179 16.2886 35.857 19.5675 35.8508 23.0528C35.8508 30.2488 30.0747 36.0994 22.9779 36.0994H22.9717C20.818 36.0994 18.7013 35.5488 16.8191 34.5101L10 36.3247ZM17.14 32.1448L17.5288 32.3826C19.1703 33.3712 21.0525 33.8906 22.9717 33.8968H22.9779C28.8713 33.8968 33.6724 29.0349 33.6724 23.0528C33.6724 20.1557 32.5616 17.4337 30.5437 15.3813C28.5257 13.3289 25.8351 12.2026 22.9779 12.2026C17.0783 12.2026 12.2771 17.0646 12.2771 23.0466C12.2771 25.0927 12.8387 27.0888 13.9125 28.8159L14.1655 29.2289L13.0856 33.2273L17.14 32.1448Z" fill="white"/>
<path d="M19.7616 17.583C19.5209 17.0386 19.2679 17.0261 19.0395 17.0198C18.8544 17.0136 18.6384 17.0136 18.4224 17.0136C18.2064 17.0136 17.8609 17.0949 17.5646 17.4203C17.2684 17.7457 16.4415 18.5341 16.4415 20.1423C16.4415 21.7441 17.5955 23.296 17.7559 23.515C17.9164 23.734 19.9837 27.1317 23.2482 28.4395C25.9635 29.5283 26.5189 29.3093 27.1052 29.253C27.6976 29.1967 29.0059 28.4645 29.2774 27.7011C29.5428 26.9377 29.5428 26.287 29.4626 26.1493C29.3823 26.0117 29.1663 25.9303 28.8454 25.7676C28.5245 25.6049 26.9447 24.8165 26.6485 24.7039C26.3523 24.5912 26.1363 24.5412 25.9265 24.8666C25.7105 25.1919 25.0934 25.9241 24.9083 26.1431C24.7231 26.3621 24.5318 26.3871 24.2109 26.2244C23.89 26.0617 22.8533 25.7176 21.6252 24.6038C20.6687 23.7402 20.0207 22.6702 19.8356 22.3448C19.6505 22.0195 19.8171 21.8443 19.9775 21.6816C20.1195 21.5376 20.2984 21.2999 20.4589 21.1121C20.6193 20.9244 20.6749 20.7868 20.7798 20.5678C20.8847 20.3488 20.8353 20.161 20.7551 19.9983C20.6749 19.8356 20.0454 18.2275 19.7616 17.583Z" fill="white"/>
</svg>
