<svg width="109" height="109" viewBox="0 0 109 109" fill="none" xmlns="http://www.w3.org/2000/svg">
<path d="M109 104.506C109 103.156 108.224 102.011 107.134 101.374C107.499 100.749 107.73 100.035 107.73 99.2518C107.73 96.9591 105.879 95.0989 103.603 95.0989C103.517 95.0989 103.426 95.1243 103.339 95.1352V94.6211C103.339 93.4493 102.391 92.4956 101.225 92.4956C100.929 92.4956 100.656 92.5737 100.402 92.6882V91.1858H103.639V81.4702H101.294V73.3752H103.639V63.6578H101.294V55.5609H103.639V45.8436H101.294V37.7467H103.639V28.0312H101.294V19.9343H103.639V5.36098H82.1969V0H25.0173V6.97963H19.4329V5.36098H3.23912V86.328H0V91.1858H3.23912V109H5.36098H6.47642H19.8198H21.4403H26.2981H27.9185H32.7763H34.3968H43.7254H51.8222H109V107.214H107.806C108.533 106.54 109 105.579 109 104.506ZM68.0124 19.9361H76.1093V28.033H68.0124V19.9361ZM68.0124 37.7467H76.1093V45.8436H68.0124V37.7467ZM68.0124 55.5609H76.1093V63.6578H68.0124V55.5609ZM68.0124 73.3752H76.1093V81.4721H68.0124V73.3752ZM51.8186 19.9361H59.9155V28.033H51.8186V19.9361ZM51.8186 37.7467H59.9155V45.8436H51.8186V37.7467ZM51.8186 55.5609H59.9155V63.6578H51.8186V55.5609ZM51.8186 73.3752H59.9155V81.4721H51.8186V73.3752ZM26.2981 107.214H21.4403V94.4267H26.2981V107.214ZM32.7745 107.214H27.9167V94.4267H32.7745V107.214ZM43.7217 107.214H34.3931V94.4267V92.8062H32.7727H27.9149H26.2944H21.4367H19.8198V94.4267V107.214H6.47642V91.1876H19.4311H43.7217V107.214ZM43.7217 73.3752V81.4721V86.3298H19.4311V70.9463H43.7217V73.3752ZM43.7217 55.5609V63.6578V66.0867H19.4311V53.132H43.7217V55.5609ZM43.7217 37.7467V45.8436V48.2725H19.4311V35.3178H43.7217V37.7467ZM43.7217 19.9361V28.033V30.4619H19.4311V17.5072H43.7217V19.9361ZM43.7217 12.6476H19.4311V8.59828H43.7217V12.6476ZM51.8186 107.214H46.4594V105.428H51.8186V91.1876H59.9155V105.428H68.0124V91.1876H76.1093V105.428H83.5212C83.8882 106.291 84.6276 106.942 85.5359 107.214H51.8186ZM84.208 96.7611V91.1876H92.3048V93.671C92.1086 93.631 91.9215 93.5656 91.7108 93.5656C90.4482 93.5656 89.3691 94.3159 88.8568 95.395C88.4281 95.2515 87.9721 95.1534 87.4925 95.1534C86.1572 95.1534 84.98 95.7892 84.208 96.7611ZM86.6532 104.186C86.07 104.186 85.6031 104.773 85.6031 104.186C85.6031 103.594 86.07 103.121 86.6532 103.121C87.2454 103.121 87.7141 103.594 87.7141 104.186C87.7141 104.773 87.2454 104.186 86.6532 104.186ZM87.7868 98.467C86.6169 98.467 85.6686 100.327 85.6686 99.141C85.6686 97.9656 86.6169 97.01 87.7868 97.01C88.9694 97.01 89.9123 97.9638 89.9123 99.141C89.9123 100.329 88.9713 98.467 87.7868 98.467ZM92.3902 104.179C91.2239 104.179 90.2756 105.812 90.2756 104.635C90.2756 103.47 91.2239 102.513 92.3902 102.513C93.5656 102.513 94.4939 103.47 94.4939 104.635C94.4957 105.812 93.5674 104.179 92.3902 104.179ZM95.0498 95.6893C95.0498 94.89 95.6857 94.2505 96.4741 94.2505C97.2716 94.2505 97.9074 94.89 97.9074 95.6893C97.9074 96.4814 97.2716 95.2896 96.4741 95.2896C95.6857 95.2896 95.0498 96.4795 95.0498 95.6893ZM97.535 100.934C96.9519 100.934 96.485 101.523 96.485 100.934C96.485 100.354 96.9519 99.8803 97.535 99.8803C98.1309 99.8803 98.5959 100.354 98.5959 100.934C98.5959 101.523 98.1327 100.934 97.535 100.934ZM98.6141 81.4721H82.4203V73.3752H98.6141V81.4721ZM98.6141 63.6578H82.4203V55.5609H98.6141V63.6578ZM98.6141 45.8436H82.4203V37.7467H98.6141V45.8436ZM98.6141 28.033H82.4203V19.9361H98.6141V28.033ZM100.422 104.756C99.6315 104.756 98.9974 105.946 98.9974 105.156C98.9974 104.357 99.6333 103.717 100.422 103.717C101.219 103.717 101.851 104.357 101.851 105.156C101.851 105.946 101.221 104.756 100.422 104.756ZM100.79 97.8747C100.206 97.8747 99.7405 98.645 99.7405 98.0582C99.7405 97.4587 100.206 96.99 100.79 96.99C101.366 96.99 101.851 97.4587 101.851 98.0582C101.851 98.645 101.368 97.8747 100.79 97.8747ZM103.317 101.128C103.317 100.543 103.786 100.066 104.378 100.066C104.962 100.066 105.427 100.543 105.427 101.128C105.427 101.715 104.962 100.956 104.378 100.956C103.786 100.956 103.317 101.715 103.317 101.128ZM105.345 104.909C104.76 104.909 104.28 105.508 104.28 104.909C104.28 104.331 104.76 103.85 105.345 103.85C105.924 103.85 106.395 104.331 106.395 104.909C106.395 105.508 105.926 104.909 105.345 104.909Z" fill="black"/>
</svg>
