<svg width="128" height="128" viewBox="0 0 128 128" fill="none" xmlns="http://www.w3.org/2000/svg">
<path d="M18.2852 18.2855C18.2852 8.18669 26.4719 0 36.5707 0C46.6695 0 54.8562 8.18669 54.8562 18.2855C54.8562 24.1804 52.0667 29.4238 47.7358 32.7676C47.6055 32.8637 47.476 32.961 47.3475 33.0593C44.3255 35.2675 40.6002 36.571 36.5707 36.571C26.4719 36.571 18.2852 28.3843 18.2852 18.2855Z" fill="black"/>
<path d="M80.261 32.7676C80.3913 32.8637 80.5207 32.961 80.6493 33.0594C83.6712 35.2676 87.3969 36.571 91.4261 36.571C101.525 36.571 109.712 28.3843 109.712 18.2855C109.712 8.18669 101.525 0 91.4261 0C81.3273 0 73.1406 8.18669 73.1406 18.2855C73.1406 24.1804 75.9301 29.4238 80.261 32.7676Z" fill="black"/>
<path d="M48.1611 45.7135C51.3227 40.248 57.2322 36.5707 64.0003 36.5707C70.7685 36.5707 76.678 40.248 79.8396 45.7135C81.3954 48.403 82.2859 51.5256 82.2859 54.8562C82.2859 64.9551 74.0992 73.1417 64.0003 73.1417C53.9015 73.1417 45.7148 64.9551 45.7148 54.8562C45.7148 51.5256 46.6053 48.403 48.1611 45.7135Z" fill="black"/>
<path d="M13.7139 45.7139H38.1318C37.1209 48.5735 36.571 51.6508 36.571 54.8566C36.571 61.8815 39.2119 68.2895 43.5551 73.1421H41.1422C31.221 73.1421 22.7764 79.4633 19.6155 88.2972C16.5073 87.0327 13.6317 85.3806 11.0824 83.3345C4.19625 77.8074 0 69.632 0 59.428C0 51.8542 6.13991 45.7139 13.7139 45.7139Z" fill="black"/>
<path d="M86.8581 73.1421C96.7789 73.1421 105.224 79.4632 108.385 88.2972C111.493 87.0327 114.369 85.3806 116.919 83.3345C123.804 77.8074 128 69.632 128 59.428C128 51.8539 121.86 45.7139 114.286 45.7139H89.8688C90.8791 48.5735 91.4295 51.6508 91.4295 54.8566C91.4295 61.8815 88.7881 68.2895 84.4453 73.1421H86.8581Z" fill="black"/>
<path d="M99.5395 90.7695C100.204 92.3814 100.572 94.1478 100.572 95.9992C100.572 106.203 96.3752 114.379 89.4898 119.906C82.7122 125.346 73.6287 127.999 64.0007 127.999C54.3726 127.999 45.2893 125.346 38.5121 119.906C31.6259 114.379 27.4297 106.203 27.4297 95.9992C27.4297 94.1478 27.7968 92.3814 28.4621 90.7695C30.5179 85.7895 35.4215 82.285 41.1436 82.285H86.8576C92.58 82.285 97.4833 85.7895 99.5395 90.7695Z" fill="black"/>
</svg>
