<svg width="125" height="124" viewBox="0 0 125 124" fill="none" xmlns="http://www.w3.org/2000/svg">
<rect x="0.5" width="124" height="124" rx="40" fill="#046ED0" fill-opacity="0.2"/>
<path fill-rule="evenodd" clip-rule="evenodd" d="M49.4618 30.0005C47.0504 30.0625 45.06 31.9888 44.9234 34.3626H43.6897C40.5238 34.3626 37.9141 36.936 37.9141 40.0743V88.2882C37.9141 91.4266 40.5238 94 43.6897 94H81.3134C84.4792 94 87.0855 91.4266 87.0855 88.2882V40.0743C87.0855 36.936 84.479 34.3626 81.3134 34.3626H80.079C79.9408 31.9501 77.8848 30.0005 75.4197 30.0005C72.9546 30.0005 70.9022 31.9499 70.7639 34.3626H67.1591C67.0208 31.9501 64.9648 30.0005 62.4997 30.0005C60.0346 30.0005 57.9822 31.9499 57.844 34.3626H54.2391C54.1009 31.9501 52.0449 30.0005 49.5798 30.0005C49.5402 30.0005 49.5021 29.9993 49.4624 30.0005H49.4618ZM49.5209 33.5094C49.5406 33.5082 49.5593 33.5094 49.5798 33.5094C50.2331 33.5094 50.7032 33.9754 50.7032 34.6231V37.6005C50.7032 38.2481 50.2331 38.7141 49.5798 38.7141C48.9264 38.7141 48.4564 38.2482 48.4564 37.6005V34.6231C48.4564 33.9955 48.8995 33.5372 49.5209 33.5094ZM62.441 33.5094C62.4607 33.5082 62.4794 33.5094 62.4999 33.5094C63.1532 33.5094 63.6233 33.9754 63.6233 34.6231V37.6005C63.6233 38.2481 63.1532 38.7141 62.4999 38.7141C61.8465 38.7141 61.3764 38.2482 61.3764 37.6005V34.6231C61.3764 33.9955 61.8196 33.5372 62.441 33.5094ZM75.3611 33.5094C75.3808 33.5082 75.3995 33.5094 75.42 33.5094C76.0733 33.5094 76.5434 33.9754 76.5434 34.6231V37.6005C76.5434 38.2481 76.0733 38.7141 75.42 38.7141C74.7666 38.7141 74.2965 38.2482 74.2965 37.6005V34.6231C74.2965 33.9955 74.7397 33.5372 75.3611 33.5094ZM43.6894 37.8609H44.923C45.0614 40.2733 47.1136 42.2229 49.5787 42.2229C52.0438 42.2229 54.0997 40.2735 54.2381 37.8609H57.8429C57.9813 40.2733 60.0336 42.2229 62.4987 42.2229C64.9638 42.2229 67.0196 40.2735 67.158 37.8609H70.7629C70.9013 40.2733 72.9535 42.2229 75.4186 42.2229C77.8837 42.2229 79.9396 40.2735 80.078 37.8609H81.3117C82.5777 37.8609 83.5445 38.8194 83.5445 40.0743V88.2882C83.5445 89.5431 82.5777 90.4912 81.3117 90.4912L43.6895 90.4918C42.4238 90.4918 41.4567 89.5437 41.4567 88.2888V40.0749C41.4567 38.82 42.4238 37.8615 43.6895 37.8615L43.6894 37.8609ZM56.8307 45.9748C56.5981 45.969 56.3666 46.0087 56.1495 46.0917C55.9324 46.1746 55.734 46.2991 55.5654 46.4581H55.5618L50.9924 50.7582L49.3056 49.0108C48.6336 48.3121 47.5184 48.2832 46.8102 48.9459C46.1054 49.6121 46.0763 50.7176 46.7449 51.4197L49.6345 54.4486C49.7944 54.6163 49.9862 54.7511 50.1988 54.8451C50.4115 54.9392 50.6407 54.9908 50.8735 54.9968C51.1063 55.0028 51.3381 54.9631 51.5555 54.8802C51.7729 54.7972 51.9716 54.6726 52.1404 54.5135L58.006 49.0106C58.1757 48.8519 58.312 48.6614 58.4072 48.4503C58.5024 48.2391 58.5545 48.0114 58.5606 47.7802C58.5667 47.549 58.5266 47.3188 58.4427 47.103C58.3587 46.8872 58.2326 46.69 58.0715 46.5227C57.9113 46.3548 57.7193 46.2199 57.5064 46.1258C57.2934 46.0318 57.0639 45.9804 56.8308 45.9746L56.8307 45.9748ZM62.371 48.7264C62.1375 48.7254 61.9061 48.7703 61.6901 48.8584C61.4742 48.9466 61.278 49.0762 61.1129 49.2399C60.9477 49.4036 60.817 49.5981 60.728 49.8122C60.6391 50.0263 60.5939 50.2557 60.5948 50.4872C60.5956 50.7176 60.6423 50.9456 60.732 51.1582C60.8218 51.3708 60.953 51.5637 61.118 51.726C61.2828 51.8883 61.4784 52.0168 61.6934 52.1041C61.9084 52.1914 62.1387 52.2357 62.371 52.2347H76.9743C77.9463 52.2311 78.7336 51.4508 78.7371 50.4872C78.7381 50.2569 78.6933 50.0286 78.6053 49.8154C78.5172 49.6023 78.3875 49.4084 78.2238 49.245C78.0601 49.0814 77.8655 48.9514 77.6511 48.8624C77.4366 48.7734 77.2066 48.7272 76.9742 48.7264H62.371ZM56.8341 61.329V61.3284C56.6014 61.3212 56.3696 61.3596 56.1518 61.4413C55.9341 61.5231 55.7348 61.6466 55.5653 61.8048H55.5618L50.9924 66.1049L49.3056 64.3575V64.3581C48.6336 63.6588 47.5184 63.6299 46.8102 64.2926C46.1054 64.9588 46.0763 66.0643 46.7447 66.7664L49.6343 69.7953C49.7942 69.9631 49.986 70.098 50.1987 70.1921C50.4113 70.2861 50.6407 70.3376 50.8735 70.3435C51.1063 70.3496 51.338 70.31 51.5554 70.2272C51.7728 70.1444 51.9716 70.0198 52.1404 69.8608L58.006 64.3579C58.7107 63.6911 58.7399 62.5856 58.0713 61.8834C57.912 61.7148 57.7207 61.5791 57.5084 61.4839C57.2961 61.3887 57.067 61.3358 56.8341 61.3284V61.329ZM62.371 64.0836C62.1384 64.0827 61.9078 64.1273 61.6925 64.2148C61.4772 64.3023 61.2815 64.4311 61.1165 64.5938C60.9515 64.7564 60.8205 64.9497 60.731 65.1626C60.6415 65.3755 60.5952 65.6038 60.5948 65.8345C60.5938 66.066 60.639 66.2955 60.7279 66.5096C60.8168 66.7237 60.9476 66.9182 61.1128 67.0818C61.278 67.2455 61.4742 67.3753 61.6901 67.4635C61.906 67.5517 62.1375 67.5968 62.371 67.596H76.9743C77.4437 67.5941 77.8931 67.4076 78.2238 67.0774C78.3875 66.9138 78.5172 66.7199 78.6052 66.5066C78.6933 66.2933 78.7381 66.0649 78.7371 65.8345C78.7353 64.8697 77.9475 64.087 76.9743 64.0836H62.371ZM56.8307 76.6793C56.5979 76.6739 56.3662 76.7141 56.1491 76.7977C55.932 76.8812 55.7336 77.0064 55.5654 77.166H55.5618L50.9924 81.4626L49.3056 79.7012C48.6336 79.0025 47.5184 78.9737 46.8102 79.6365C46.6405 79.7952 46.5042 79.9856 46.409 80.1968C46.3138 80.4079 46.2617 80.6357 46.2556 80.8669C46.2495 81.0981 46.2896 81.3282 46.3736 81.544C46.4576 81.7597 46.5838 81.9569 46.7449 82.1242L49.6345 85.1426C49.7937 85.3111 49.985 85.4468 50.1973 85.5417C50.4097 85.6367 50.6388 85.6892 50.8717 85.696C51.3418 85.7105 51.7984 85.5381 52.1404 85.218L58.006 79.7014V79.7019C58.7085 79.0356 58.7377 77.933 58.0715 77.2309C57.9116 77.0624 57.7197 76.9269 57.5067 76.8323C57.2938 76.7376 57.0641 76.6856 56.8308 76.6793H56.8307ZM62.371 79.4309C62.1375 79.43 61.9061 79.4748 61.6901 79.563C61.4742 79.6511 61.278 79.7808 61.1129 79.9445C60.9477 80.1082 60.817 80.3027 60.728 80.5167C60.6391 80.7308 60.5939 80.9602 60.5948 81.1917C60.5956 81.4222 60.6423 81.6502 60.732 81.8627C60.8218 82.0753 60.953 82.2682 61.118 82.4305C61.2828 82.5928 61.4784 82.7213 61.6934 82.8086C61.9084 82.8959 62.1387 82.9403 62.371 82.9392H76.9743C77.9463 82.9356 78.7336 82.1553 78.7371 81.1917C78.7381 80.9614 78.6933 80.7331 78.6053 80.5199C78.5172 80.3068 78.3875 80.113 78.2238 79.9496C78.0601 79.7859 77.8655 79.6559 77.6511 79.5669C77.4366 79.4779 77.2066 79.4317 76.9742 79.4309H62.371Z" fill="#2D4C7C"/>
</svg>
