<svg width="128" height="129" viewBox="0 0 128 129" fill="none" xmlns="http://www.w3.org/2000/svg">
<path d="M71.7703 128.002L61.4359 103.719C71.3899 100.042 80.7098 95.0967 89.3324 89.3272L71.7703 128.002ZM24.2827 66.5661L0 56.2317L38.6748 38.6696C32.9053 47.2922 27.96 56.6121 24.2827 66.5661ZM125.535 2.46744C125.535 2.46744 94.1509 -10.98 58.2658 24.9115C44.3809 38.7964 36.0753 54.0761 30.6862 67.4538C28.911 72.2089 30.1156 77.4078 33.6027 80.9582L47.1072 94.3993C50.5942 97.9498 55.7931 99.091 60.5482 97.3158C74.1161 92.1169 89.2056 83.6211 103.09 69.7362C138.976 33.8511 125.535 2.46744 125.535 2.46744ZM80.7098 47.2922C75.7645 42.3469 75.7645 34.2949 80.7098 29.3496C85.6551 24.4043 93.7071 24.4043 98.6524 29.3496C103.534 34.2949 103.598 42.3469 98.6524 47.2922C93.7071 52.2375 85.6551 52.2375 80.7098 47.2922ZM44.8247 92.1169L35.8851 83.1773L44.8247 92.1169ZM28.0868 126.797L51.1648 103.719C49.0092 103.149 46.917 102.198 45.0149 100.866L19.1472 126.797H28.0868ZM1.20462 126.797H10.1442L40.3866 96.6184L31.3836 87.6788L1.20462 117.858V126.797ZM1.20462 108.855L27.1358 82.9871C25.8043 81.085 24.8533 79.0562 24.2827 76.8372L1.20462 99.9152V108.855Z" fill="black"/>
</svg>
