<svg width="149" height="151" viewBox="0 0 149 151" fill="none" xmlns="http://www.w3.org/2000/svg">
<g filter="url(#filter0_d_501_136)">
<circle cx="74.5" cy="70.5" r="70.5" fill="white"/>
<circle cx="74.5" cy="70.5" r="69" stroke="#046ED0" stroke-width="3"/>
</g>
<path d="M107.752 39.598H102.636V35.5064C102.636 33.5354 101.154 31.9238 99.3484 31.9238H82.895C81.0941 31.9238 79.613 33.5354 79.613 35.5064V39.598H48.8409L41.2422 54.9463H46.5182V65.1785H45.6638L41.4021 70.2947L45.6638 75.4108H46.5975V78.1581C46.5975 78.8526 47.1334 79.4141 47.7972 79.4141C49.781 79.4141 51.3951 81.1076 51.3951 83.1885C51.3951 85.2695 49.781 86.9629 47.7972 86.9629C45.8134 86.9629 44.1993 85.2695 44.1993 83.1885C44.1993 82.494 43.6621 81.9325 42.9996 81.9325C42.3358 81.9325 41.7998 82.494 41.7998 83.1885C41.8024 86.6598 44.4909 89.4801 47.7972 89.4801C51.1022 89.4801 53.7933 86.6598 53.7933 83.1898C53.7933 80.1521 51.7302 77.6094 48.9969 77.0275V75.4108H49.9293L54.1923 70.2947L49.9293 65.1785H49.0762V54.9463H79.613V64.154C79.613 65.8526 80.7143 67.2762 82.1711 67.642V108.665H85.5285V100.991L96.72 104.828L85.5285 108.665H100.077V67.6407C101.536 67.2761 102.636 65.8526 102.636 64.154V54.9463H107.752V51.1092H105.094L107.752 46.0635V39.598ZM47.1807 51.1092L50.1685 44.9712L53.3993 51.1092H47.1807ZM52.8366 43.4351H58.1484L55.4931 48.4808L52.8366 43.4351ZM57.5869 51.1092L60.2434 46.0635L62.9012 51.1092H57.5869ZM62.3385 43.4351H67.6503L64.9937 48.4808L62.3385 43.4351ZM67.0901 51.1092L69.7453 46.0635L72.4006 51.1092H67.0901ZM71.8404 43.4351H77.1522L74.4969 48.4808L71.8404 43.4351ZM79.613 51.1092H76.5907L79.2459 46.0635L79.613 46.7605V51.1092ZM96.72 100.991L85.5285 97.1542L96.72 93.3172V100.991ZM85.5285 93.3172V85.643L96.72 89.4826L85.5285 93.3172ZM96.72 85.643L85.5285 81.8059L96.72 77.9688V85.643ZM85.5285 77.9688V70.2972L96.72 74.1317L85.5285 77.9688ZM96.72 70.2972L89.2569 67.7366H96.72V70.2972ZM98.6386 48.8684C98.6386 50.1001 97.7739 51.1092 96.72 51.1092H85.2062C84.1523 51.1092 83.2902 50.1001 83.2902 48.8684V38.0094C83.2902 36.7701 84.1523 35.7609 85.2062 35.7609H96.72C97.7739 35.7609 98.6386 36.7701 98.6386 38.0094V48.8684ZM103 48.4808L102.636 47.7876V43.4351H105.655L103 48.4808Z" fill="black"/>
<defs>
<filter id="filter0_d_501_136" x="0" y="0" width="149" height="151" filterUnits="userSpaceOnUse" color-interpolation-filters="sRGB">
<feFlood flood-opacity="0" result="BackgroundImageFix"/>
<feColorMatrix in="SourceAlpha" type="matrix" values="0 0 0 0 0 0 0 0 0 0 0 0 0 0 0 0 0 0 127 0" result="hardAlpha"/>
<feOffset dy="6"/>
<feGaussianBlur stdDeviation="2"/>
<feComposite in2="hardAlpha" operator="out"/>
<feColorMatrix type="matrix" values="0 0 0 0 0 0 0 0 0 0 0 0 0 0 0 0 0 0 0.25 0"/>
<feBlend mode="normal" in2="BackgroundImageFix" result="effect1_dropShadow_501_136"/>
<feBlend mode="normal" in="SourceGraphic" in2="effect1_dropShadow_501_136" result="shape"/>
</filter>
</defs>
</svg>
