<svg width="200" height="200" viewBox="0 0 200 200" fill="none" xmlns="http://www.w3.org/2000/svg">
<path d="M143.929 182.755C143.878 181.906 143.776 181.056 143.649 180.26C142.683 172.513 140.47 158.345 139.453 152.03C139.352 150.916 139.174 149.854 138.945 148.846C138.945 148.846 137.317 143.752 136.096 142.213C136.096 142.213 135.487 141.523 135.41 141.47C132.994 139.082 125.518 132.821 125.518 132.821C121.78 129.425 117.915 126.559 113.973 123.641C113.262 129.743 106.573 170.391 105.506 176.069L104.666 138.286C104.946 137.385 105.149 136.376 105.379 135.421L108.176 123.906C106.217 127.303 103.268 129.478 99.9621 129.478C96.7326 129.478 93.8591 127.409 91.9011 124.119L94.622 135.368C94.8509 136.324 95.0543 137.385 95.334 138.233L94.4949 176.015C93.4268 170.39 86.739 129.743 86.027 123.588C82.0855 126.506 78.2202 129.425 74.4821 132.767C74.4821 132.767 67.006 139.029 64.5902 141.417C64.5139 141.523 63.9799 142.053 63.9036 142.16C63.9036 142.16 61.6659 146.033 61.0556 148.74C61.0556 148.74 60.6487 150.809 60.547 151.924C59.5553 158.238 57.3429 172.354 56.3512 180.154C56.224 180.95 56.1223 181.799 56.0715 182.647C56.0206 183.39 55.9952 184.186 55.9952 184.93C55.9952 193.26 59.2247 200 63.217 200H70.1083C79.9748 200 89.8159 200 99.6824 200C99.8095 200 99.9367 200 100.064 200C100.191 200 100.318 200 100.445 200C110.312 200 120.153 200 130.02 200H136.911C140.903 200 144.133 193.26 144.133 184.93C144.005 184.294 143.979 183.498 143.929 182.755Z" fill="white"/>
<path d="M118.805 53.8075C118.805 51.1543 119.059 41.4965 119.059 39.3209C119.059 17.8297 110.693 0.37146 100.394 0.37146H100.369H100.343C100.216 0.37146 100.114 0.37146 99.9873 0.37146C99.8602 0.37146 99.7587 0.37146 99.6315 0.37146H99.6059H99.5804C89.2816 0.37146 80.9155 17.8297 80.9155 39.3209C80.9155 41.5496 81.1698 51.1543 81.1698 53.8075C80.712 53.8606 76.5419 51.738 76.9996 62.1917C77.9405 84.3197 82.0092 80.0745 82.1109 80.0745C84.0944 93.4468 87.1967 101.937 90.2228 107.35C94.9526 115.786 99.5298 116.742 99.6315 116.742C99.7587 116.742 99.8858 116.742 100.013 116.742C100.14 116.742 100.267 116.742 100.394 116.742C100.47 116.742 105.023 115.841 109.727 107.456C112.778 102.044 115.881 93.4999 117.89 80.0745C118.017 80.0745 122.06 84.3727 123.001 62.1917C123.433 51.738 119.263 53.8606 118.805 53.8075Z" fill="white"/>
<path d="M55.5118 144.336L55.5626 144.017L55.6389 143.699C56.1983 141.151 57.1138 138.658 58.5124 135.792C58.8175 135.209 59.733 133.298 60.4704 132.237C60.5213 132.183 60.5721 132.078 60.623 132.025C60.6484 131.971 60.6739 131.919 60.7247 131.919C61.2333 131.229 61.8436 130.645 62.047 130.433C63.6999 128.787 67.26 125.763 69.7266 123.641C69.6503 123.588 69.5741 123.481 69.4723 123.375C69.3961 123.322 69.3198 123.216 69.2435 123.163C67.1329 121.093 60.623 115.628 60.623 115.628C57.3681 112.71 53.986 110.162 50.5531 107.616C49.9428 112.975 44.0941 148.369 43.1786 153.304L42.4412 120.351C42.6955 119.555 42.8481 118.705 43.0515 117.857L45.4927 107.827C43.7889 110.8 41.2206 112.71 38.3471 112.71C35.5499 112.71 33.0324 110.906 31.3032 108.04L33.6936 117.857C33.897 118.706 34.0496 119.608 34.3039 120.351L33.5664 153.304C32.651 148.422 26.8023 112.975 26.192 107.616C22.7591 110.162 19.377 112.657 16.1221 115.628C16.1221 115.628 9.61221 121.093 7.50159 123.163C7.4253 123.216 7.34901 123.323 7.27273 123.375C7.09472 123.588 6.96758 123.694 6.89129 123.8C5.79784 125.127 4.93325 127.143 4.39924 129.531C4.39924 129.531 4.39924 129.531 4.39924 129.584C4.1958 130.434 4.04323 131.388 3.96694 132.344C3.10235 137.862 1.16974 150.173 0.330578 156.912C0.228862 157.602 0.127146 158.345 0.0762873 159.089C0.0254291 159.725 0 160.415 0 161.105C0 168.375 2.82263 174.212 6.28099 174.212H12.2823C20.8773 174.212 29.4723 174.212 38.0674 174.212C38.1691 174.212 38.2962 174.212 38.398 174.212C38.4997 174.212 38.6268 174.212 38.7285 174.212C42.8226 174.212 46.9167 174.212 51.0108 174.212C52.0788 166.358 53.7826 155.32 54.8506 148.687C55.0032 147.042 55.3083 145.291 55.5118 144.336Z" fill="white"/>
<path d="M22.7337 69.5146C24.4628 81.1358 27.1583 88.5648 29.8029 93.2876C33.9225 100.663 37.9148 101.459 37.9911 101.459C38.0928 101.459 38.22 101.459 38.3217 101.459C38.4234 101.459 38.5506 101.459 38.6523 101.459C38.7286 101.459 42.6955 100.663 46.7896 93.3407C49.4597 88.6179 52.1551 81.1889 53.9097 69.4616C54.0115 69.4616 57.5461 73.2292 58.3853 53.9136C58.7667 44.7865 55.1303 46.6438 54.7489 46.5907C54.7489 44.2559 54.9778 35.8717 54.9778 33.9613C54.9778 15.2295 47.6796 0 38.7031 0H38.6777H38.6523C38.5506 0 38.4488 0 38.3471 0C38.2454 0 38.1437 0 38.042 0H38.0165H37.9911C29.0146 0 21.7165 15.2295 21.7165 33.9613C21.7165 35.8717 21.9453 44.309 21.9453 46.5907C21.5385 46.6438 17.9021 44.7865 18.309 53.9136C19.0973 73.2822 22.6319 69.5146 22.7337 69.5146Z" fill="white"/>
<path d="M199.873 147.837C199.822 146.617 199.746 145.396 199.669 144.176C199.669 144.176 199.339 140.25 199.262 139.612C198.499 132.661 196.44 127.62 193.642 123.64C193.108 122.897 192.575 122.26 192.04 121.677C191.328 120.881 180.394 113.398 180.114 113.187C180.19 113.983 180.216 114.832 180.242 115.786C181.767 118.015 186.243 126.08 184.209 141.098C184.209 141.098 180.979 133.085 177.699 132.077C174.571 143.433 169.256 157.867 166.383 161.634C163.509 157.867 158.195 143.487 155.067 132.078C151.787 133.086 148.557 141.099 148.557 141.099C146.522 126.028 150.998 118.016 152.524 115.786C152.55 114.832 152.575 113.983 152.651 113.187C152.371 113.398 141.436 120.882 140.725 121.678C140.165 122.261 139.631 122.898 139.123 123.64C138.029 125.179 137.063 126.877 136.224 128.787C136.885 129.372 137.445 129.903 137.903 130.326C138.08 130.486 138.614 131.016 139.097 131.653C140.242 133.086 141.361 135.262 142.581 138.446C143.802 141.682 144.208 143.221 144.412 144.23C144.717 145.662 144.971 147.201 145.15 148.74C146.192 155.373 147.921 166.41 148.964 174.211C154.762 174.211 160.585 174.211 166.383 174.211C174.8 174.211 183.217 174.211 191.634 174.211C194.151 174.211 196.288 172.619 198.068 168.692C199.441 165.614 199.848 161.953 199.949 157.973C199.975 157.283 200 154.258 200 154.258C200 154.258 199.873 147.89 199.873 147.837Z" fill="white"/>
<path d="M146.573 76.2008C146.828 78.1642 147.005 80.0215 147.005 81.7726C147.005 82.3563 146.98 82.94 146.929 83.5237C146.701 85.1687 145.022 90.7936 144.742 91.7488C147.717 98.4349 151.634 99.9738 155.499 101.672C156.643 102.149 157.813 102.468 159.059 102.786C159.466 102.946 159.872 103.106 160.28 103.264L158.321 115.256C158.321 115.256 158.271 132.768 166.383 143.435H166.433C174.545 132.768 174.494 115.256 174.494 115.256L172.536 103.264C172.943 103.105 173.35 102.945 173.757 102.786C175.003 102.468 176.173 102.15 177.317 101.672C181.182 99.9738 185.124 98.4349 188.074 91.7488C187.794 90.7936 186.116 85.1687 185.887 83.5237C185.836 82.94 185.81 82.3563 185.81 81.7726C185.81 80.0215 185.963 78.1642 186.243 76.2008C186.497 74.3436 186.777 72.4863 187.056 70.576C188.379 64.4735 189.091 57.7343 189.091 50.5706C189.091 24.0914 178.996 2.54713 166.459 2.06955H166.433H166.408C153.871 2.54713 143.776 24.0914 143.776 50.5706C143.776 57.6813 144.513 64.4735 145.81 70.576C146.04 72.4863 146.319 74.3436 146.573 76.2008Z" fill="white"/>
</svg>
