<svg width="125" height="124" viewBox="0 0 125 124" fill="none" xmlns="http://www.w3.org/2000/svg">
<rect x="0.5" width="124" height="124" rx="40" fill="#046ED0" fill-opacity="0.2"/>
<path d="M62.5007 93.9991C62.0058 93.9991 61.5081 93.8531 61.0836 93.5556C37.7619 77.385 35.9102 61.65 35.9102 42.7564C35.9102 41.5613 36.7569 40.5278 37.932 40.3065C50.5935 37.8785 60.9484 30.5418 61.0517 30.4665C61.919 29.8445 63.0868 29.8445 63.9517 30.4665C64.0541 30.5395 74.409 37.8793 87.0715 40.3063C88.2463 40.5302 89.0933 41.5613 89.0933 42.7564C89.0933 61.65 87.2406 77.385 63.9198 93.5572C63.5025 93.8463 63.007 94.0008 62.4996 94L62.5007 93.9991ZM40.9012 44.7783C41.0361 61.8849 43.1785 74.5356 62.5007 88.4498C81.8229 74.5369 83.9661 61.8849 84.1002 44.7783C73.9898 42.4398 65.7339 37.5874 62.5007 35.4982C59.2676 37.5874 51.0122 42.4398 40.9012 44.7783Z" fill="#2D4C7C"/>
<path d="M61.3783 71.2845C60.5469 71.2854 59.7487 70.9586 59.1559 70.3748L50.8269 62.1896C49.5765 60.9619 49.5561 58.9504 50.7836 57.698C52.0092 56.448 54.0189 56.425 55.2694 57.6547L61.3548 63.634L73.4623 51.5039C74.7012 50.2629 76.7116 50.2629 77.9505 51.5039C79.1893 52.7449 79.1893 54.7587 77.9505 55.9998L63.6205 70.3518C63.3263 70.6473 62.9768 70.8818 62.5921 71.0418C62.2073 71.2019 61.7949 71.2844 61.3783 71.2847V71.2845Z" fill="#2D4C7C"/>
</svg>
