<svg width="200" height="200" viewBox="0 0 200 200" fill="none" xmlns="http://www.w3.org/2000/svg">
<path d="M56.8 137.2V69.2H53.6C51.0341 69.2472 48.5895 70.3012 46.7936 72.1345C44.9977 73.9678 43.9943 76.4336 44 79V149.8C43.9943 152.366 44.9977 154.832 46.7936 156.666C48.5895 158.499 51.0341 159.553 53.6 159.6H124.8C127.366 159.553 129.811 158.499 131.606 156.666C133.402 154.832 134.406 152.366 134.4 149.8V147H66.4C63.8341 146.953 61.3895 145.899 59.5936 144.066C57.7977 142.232 56.7943 139.766 56.8 137.2V137.2Z" fill="white"/>
<path d="M92.6 60.6H128C128.422 60.6054 128.84 60.5263 129.231 60.3674C129.622 60.2084 129.977 59.9729 130.275 59.6747C130.573 59.3765 130.808 59.0216 130.967 58.6309C131.126 58.2402 131.205 57.8217 131.2 57.4V50.8C131.206 48.2336 130.202 45.7678 128.406 43.9345C126.611 42.1012 124.166 41.0472 121.6 41H99C97.7239 41.0051 96.4614 41.2636 95.2859 41.7604C94.1104 42.2572 93.0453 42.9824 92.1523 43.894C91.2592 44.8057 90.5561 45.8856 90.0836 47.071C89.6112 48.2565 89.3788 49.524 89.4 50.8V57.4C89.4203 58.2423 89.764 59.0445 90.3598 59.6403C90.9555 60.236 91.7577 60.5797 92.6 60.6V60.6Z" fill="white"/>
<path d="M145.8 49H142.6C142.385 48.9818 142.169 49.0106 141.967 49.0846C141.764 49.1585 141.581 49.2758 141.428 49.4282C141.276 49.5806 141.159 49.7644 141.085 49.9668C141.011 50.1692 140.982 50.3853 141 50.6V57.2C141.016 60.6712 139.658 64.0077 137.222 66.4809C134.787 68.9541 131.471 70.3631 128 70.4H92.6001C89.1405 70.3271 85.8461 68.9068 83.418 66.4414C80.99 63.976 79.6201 60.6602 79.6001 57.2V50.6C79.6183 50.3853 79.5894 50.1692 79.5155 49.9668C79.4415 49.7644 79.3243 49.5806 79.1719 49.4282C79.0195 49.2758 78.8357 49.1585 78.6333 49.0846C78.4309 49.0106 78.2148 48.9818 78.0001 49H74.8001C73.5239 49.0051 72.2615 49.2636 71.086 49.7604C69.9105 50.2572 68.8453 50.9824 67.9523 51.8941C67.0593 52.8057 66.3561 53.8856 65.8837 55.071C65.4112 56.2565 65.1789 57.524 65.2001 58.8V129.4C65.1944 131.966 66.1977 134.432 67.9936 136.266C69.7895 138.099 72.2341 139.153 74.8001 139.2H145.8C147.076 139.195 148.339 138.936 149.514 138.44C150.69 137.943 151.755 137.218 152.648 136.306C153.541 135.394 154.244 134.314 154.716 133.129C155.189 131.943 155.421 130.676 155.4 129.4V59C155.44 57.7095 155.222 56.4241 154.759 55.219C154.295 54.0139 153.596 52.9134 152.702 51.982C151.808 51.0506 150.737 50.3071 149.552 49.795C148.367 49.283 147.091 49.0127 145.8 49V49ZM121.6 111.2C121.605 111.622 121.526 112.04 121.367 112.431C121.209 112.822 120.973 113.176 120.675 113.475C120.377 113.773 120.022 114.008 119.631 114.167C119.24 114.326 118.822 114.405 118.4 114.4H86.0001C85.5783 114.405 85.1598 114.326 84.7691 114.167C84.3785 114.008 84.0236 113.773 83.7253 113.475C83.4271 113.176 83.1916 112.822 83.0327 112.431C82.8738 112.04 82.7947 111.622 82.8001 111.2V108C82.7947 107.578 82.8738 107.16 83.0327 106.769C83.1916 106.378 83.4271 106.024 83.7253 105.725C84.0236 105.427 84.3785 105.192 84.7691 105.033C85.1598 104.874 85.5783 104.795 86.0001 104.8H118.4C118.822 104.795 119.24 104.874 119.631 105.033C120.022 105.192 120.377 105.427 120.675 105.725C120.973 106.024 121.209 106.378 121.367 106.769C121.526 107.16 121.605 107.578 121.6 108V111.2ZM137.8 94.8C137.805 95.2217 137.726 95.6403 137.567 96.0309C137.409 96.4216 137.173 96.7765 136.875 97.0747C136.577 97.3729 136.222 97.6085 135.831 97.7674C135.44 97.9263 135.022 98.0054 134.6 98H86.0001C85.5783 98.0054 85.1598 97.9263 84.7691 97.7674C84.3785 97.6085 84.0236 97.3729 83.7253 97.0747C83.4271 96.7765 83.1916 96.4216 83.0327 96.0309C82.8738 95.6403 82.7947 95.2217 82.8001 94.8V91.6C82.7947 91.1783 82.8738 90.7598 83.0327 90.3691C83.1916 89.9784 83.4271 89.6235 83.7253 89.3253C84.0236 89.0271 84.3785 88.7916 84.7691 88.6326C85.1598 88.4737 85.5783 88.3946 86.0001 88.4H134.6C135.022 88.3946 135.44 88.4737 135.831 88.6326C136.222 88.7916 136.577 89.0271 136.875 89.3253C137.173 89.6235 137.409 89.9784 137.567 90.3691C137.726 90.7598 137.805 91.1783 137.8 91.6V94.8Z" fill="white"/>
</svg>
