<svg width="138" height="138" viewBox="0 0 138 138" fill="none" xmlns="http://www.w3.org/2000/svg">
<path d="M118.835 30.666H88.168V38.3327H118.835V118.833H88.168V126.499H126.501V38.3327C126.501 36.2994 125.694 34.3493 124.256 32.9115C122.818 31.4738 120.868 30.666 118.835 30.666Z" fill="#2D4C7C"/>
<path d="M76.2054 11.5H23.4587C21.3034 11.5 19.2363 12.3562 17.7123 13.8802C16.1882 15.4043 15.332 17.4713 15.332 19.6267V126.5H84.332V19.6267C84.332 17.4713 83.4758 15.4043 81.9518 13.8802C80.4277 12.3562 78.3607 11.5 76.2054 11.5ZM76.6654 118.833H65.1654V107.333H34.4987V118.833H22.9987V19.6267C22.9987 19.5663 23.0106 19.5064 23.0337 19.4506C23.0568 19.3948 23.0907 19.3441 23.1334 19.3014C23.1761 19.2587 23.2269 19.2248 23.2827 19.2017C23.3385 19.1786 23.3983 19.1667 23.4587 19.1667H76.2054C76.2658 19.1667 76.3256 19.1786 76.3814 19.2017C76.4372 19.2248 76.4879 19.2587 76.5306 19.3014C76.5733 19.3441 76.6072 19.3948 76.6303 19.4506C76.6535 19.5064 76.6654 19.5663 76.6654 19.6267V118.833Z" fill="#2D4C7C"/>
<path d="M30.668 30.666H38.3346V38.3327H30.668V30.666Z" fill="#2D4C7C"/>
<path d="M46 30.666H53.6667V38.3327H46V30.666Z" fill="#2D4C7C"/>
<path d="M61.332 30.666H68.9987V38.3327H61.332V30.666Z" fill="#2D4C7C"/>
<path d="M30.668 49.834H38.3346V57.5007H30.668V49.834Z" fill="#2D4C7C"/>
<path d="M46 49.834H53.6667V57.5007H46V49.834Z" fill="#2D4C7C"/>
<path d="M61.332 49.834H68.9987V57.5007H61.332V49.834Z" fill="#2D4C7C"/>
<path d="M30.668 69H38.3346V76.6667H30.668V69Z" fill="#2D4C7C"/>
<path d="M46 69H53.6667V76.6667H46V69Z" fill="#2D4C7C"/>
<path d="M61.332 69H68.9987V76.6667H61.332V69Z" fill="#2D4C7C"/>
<path d="M30.668 88.166H38.3346V95.8327H30.668V88.166Z" fill="#2D4C7C"/>
<path d="M46 88.166H53.6667V95.8327H46V88.166Z" fill="#2D4C7C"/>
<path d="M61.332 88.166H68.9987V95.8327H61.332V88.166Z" fill="#2D4C7C"/>
<path d="M88.168 49.834H95.8346V57.5007H88.168V49.834Z" fill="#2D4C7C"/>
<path d="M103.5 49.834H111.167V57.5007H103.5V49.834Z" fill="#2D4C7C"/>
<path d="M88.168 69H95.8346V76.6667H88.168V69Z" fill="#2D4C7C"/>
<path d="M103.5 69H111.167V76.6667H103.5V69Z" fill="#2D4C7C"/>
<path d="M88.168 88.166H95.8346V95.8327H88.168V88.166Z" fill="#2D4C7C"/>
<path d="M103.5 88.166H111.167V95.8327H103.5V88.166Z" fill="#2D4C7C"/>
</svg>
