<svg width="74" height="74" viewBox="0 0 74 74" fill="none" xmlns="http://www.w3.org/2000/svg">
<g clip-path="url(#clip0_1384_3019)">
<rect width="74" height="74" rx="37" transform="matrix(-1 0 0 1 74 0)" fill="#2D4C7C"/>
<path fill-rule="evenodd" clip-rule="evenodd" d="M37 69.375C28.4136 69.375 20.1789 65.9641 14.1074 59.8926C8.03593 53.8211 4.625 45.5864 4.625 37C4.625 28.4136 8.03593 20.1789 14.1074 14.1074C20.1789 8.03593 28.4136 4.625 37 4.625C45.5864 4.625 53.8211 8.03593 59.8926 14.1074C65.9641 20.1789 69.375 28.4136 69.375 37C69.375 45.5864 65.9641 53.8211 59.8926 59.8926C53.8211 65.9641 45.5864 69.375 37 69.375ZM37 74C27.187 74 17.7759 70.1018 10.837 63.163C3.8982 56.2241 0 46.813 0 37C0 27.187 3.8982 17.7759 10.837 10.837C17.7759 3.8982 27.187 0 37 0C46.813 0 56.2241 3.8982 63.163 10.837C70.1018 17.7759 74 27.187 74 37C74 46.813 70.1018 56.2241 63.163 63.163C56.2241 70.1018 46.813 74 37 74Z" fill="#046ED0"/>
<path fill-rule="evenodd" clip-rule="evenodd" d="M55.5 37.0029C55.5 37.6162 55.2564 38.2044 54.8227 38.6381C54.389 39.0718 53.8008 39.3154 53.1875 39.3154H26.3949L36.3247 49.2407C36.5398 49.4557 36.7103 49.7109 36.8267 49.9918C36.943 50.2728 37.0029 50.5739 37.0029 50.8779C37.0029 51.182 36.943 51.4831 36.8267 51.764C36.7103 52.0449 36.5398 52.3002 36.3247 52.5152C36.1097 52.7302 35.8545 52.9007 35.5736 53.0171C35.2927 53.1335 34.9916 53.1933 34.6875 53.1933C34.3834 53.1933 34.0823 53.1335 33.8014 53.0171C33.5205 52.9007 33.2653 52.7302 33.0502 52.5152L19.1752 38.6402C18.9599 38.4254 18.789 38.1702 18.6725 37.8892C18.5559 37.6083 18.4959 37.3071 18.4959 37.0029C18.4959 36.6987 18.5559 36.3976 18.6725 36.1166C18.789 35.8357 18.9599 35.5805 19.1752 35.3657L33.0502 21.4907C33.2653 21.2757 33.5205 21.1051 33.8014 20.9888C34.0823 20.8724 34.3834 20.8125 34.6875 20.8125C34.9916 20.8125 35.2927 20.8724 35.5736 20.9888C35.8545 21.1051 36.1097 21.2757 36.3247 21.4907C36.5398 21.7057 36.7103 21.9609 36.8267 22.2418C36.943 22.5228 37.0029 22.8239 37.0029 23.1279C37.0029 23.432 36.943 23.7331 36.8267 24.014C36.7103 24.2949 36.5398 24.5502 36.3247 24.7652L26.3949 34.6904H53.1875C53.8008 34.6904 54.389 34.9341 54.8227 35.3677C55.2564 35.8014 55.5 36.3896 55.5 37.0029Z" fill="white"/>
</g>
<defs>
<clipPath id="clip0_1384_3019">
<rect width="74" height="74" rx="37" transform="matrix(-1 0 0 1 74 0)" fill="white"/>
</clipPath>
</defs>
</svg>
