<svg width="138" height="82" viewBox="0 0 138 82" fill="none" xmlns="http://www.w3.org/2000/svg">
<path d="M93.4756 0H75.1454C73.4382 0 71.7952 0.640171 70.5361 1.79248L49.5599 20.9976C49.5385 21.0189 49.5172 21.0616 49.4959 21.083C45.9536 24.4118 46.0176 29.7253 49.0477 33.0328C51.7578 35.9989 57.4553 36.7885 61.0189 33.609C61.0403 33.5876 61.083 33.5876 61.1043 33.5663L78.1542 17.9461C79.5412 16.6871 81.7178 16.7725 82.9768 18.1595C84.2571 19.5466 84.1504 21.7018 82.7634 22.9821L77.1939 28.0822L108.264 53.3049C108.882 53.817 109.437 54.3718 109.949 54.948V13.657L98.2982 2.00587C97.0392 0.725527 95.2894 0 93.4756 0ZM116.799 13.6997V61.4777C116.799 65.2547 119.851 68.3062 123.628 68.3062H137.285V13.6997H116.799ZM127.042 61.4777C125.164 61.4777 123.628 59.9413 123.628 58.0635C123.628 56.1857 125.164 54.6493 127.042 54.6493C128.92 54.6493 130.456 56.1857 130.456 58.0635C130.456 59.9413 128.92 61.4777 127.042 61.4777ZM0.714844 68.2849H14.3718C18.1488 68.2849 21.2003 65.2334 21.2003 61.4564V13.6997H0.714844V68.2849ZM10.9576 54.6493C12.8354 54.6493 14.3718 56.1857 14.3718 58.0635C14.3718 59.9413 12.8354 61.4777 10.9576 61.4777C9.07974 61.4777 7.54333 59.9413 7.54333 58.0635C7.54333 56.1643 9.07974 54.6493 10.9576 54.6493ZM103.974 58.6183L72.1152 32.7554L65.7135 38.6236C59.3758 44.4065 49.6666 43.8517 44.0117 37.6847C38.2715 31.4111 38.7197 21.7018 44.9506 15.9829L62.406 0H44.5239C42.7101 0 40.9816 0.725527 39.7012 2.00587L28.0288 13.657V61.4351H31.9338L51.2457 78.9117C57.0926 83.6703 65.6922 82.7741 70.4508 76.9272L70.4935 76.8845L74.3131 80.1921C77.7061 82.9661 82.7207 82.4327 85.4735 79.0398L92.1739 70.8029L93.3262 71.7418C96.2497 74.1104 100.56 73.6837 102.929 70.7389L104.956 68.2422C107.346 65.2974 106.898 61.0083 103.974 58.6183Z" fill="#2D4C7C"/>
</svg>
