<svg width="200" height="201" viewBox="0 0 200 201" fill="none" xmlns="http://www.w3.org/2000/svg">
<path d="M126.088 5.98098C126.088 2.70526 123.858 0.0509949 121.106 0.0509949H68.3229C65.5706 0.0509949 63.3405 2.70526 63.3405 5.98098V43.6854C63.3405 46.9611 65.5706 49.6154 68.3229 49.6154H116.123V66.3664L68.3229 123.275L56.0116 108.616C54.9679 107.374 53.5077 106.749 52.0456 106.902C50.5754 107.058 49.2388 107.981 48.3964 109.424L0.89159 190.736C-0.16735 192.548 -0.292244 194.91 0.567397 196.867C1.42637 198.825 3.12838 200.05 4.98319 200.05H195.004C195.01 200.051 195.015 200.051 195.018 200.05C197.77 200.05 200 197.396 200 194.12C200 192.711 199.587 191.416 198.897 190.398L126.088 66.9483V5.98098ZM73.3054 37.7554V11.911H116.123V37.7554H73.3054ZM14.5156 188.191L53.1762 122.017L64.7987 135.856C65.7334 136.968 67.0009 137.593 68.3229 137.593C69.6443 137.593 70.9118 136.968 71.8465 135.856L120.436 78.0074L185.419 188.192L14.5156 188.191Z" fill="white"/>
</svg>
