<svg width="128" height="128" viewBox="0 0 128 128" fill="none" xmlns="http://www.w3.org/2000/svg">
<path d="M18.2852 18.2855C18.2852 8.18669 26.4719 0 36.5707 0C46.6695 0 54.8562 8.18669 54.8562 18.2855C54.8562 24.1804 52.0667 29.4238 47.7358 32.7676C47.6055 32.8637 47.476 32.961 47.3475 33.0593C44.3255 35.2675 40.6002 36.571 36.5707 36.571C26.4719 36.571 18.2852 28.3843 18.2852 18.2855Z" fill="#2D4C7C"/>
<path d="M80.261 32.7676C80.3913 32.8637 80.5207 32.961 80.6493 33.0594C83.6712 35.2676 87.3969 36.571 91.4261 36.571C101.525 36.571 109.712 28.3843 109.712 18.2855C109.712 8.18669 101.525 0 91.4261 0C81.3273 0 73.1406 8.18669 73.1406 18.2855C73.1406 24.1804 75.9301 29.4238 80.261 32.7676Z" fill="#2D4C7C"/>
<path d="M48.1611 45.7131C51.3227 40.2475 57.2322 36.5703 64.0003 36.5703C70.7685 36.5703 76.678 40.2475 79.8396 45.7131C81.3954 48.4026 82.2859 51.5252 82.2859 54.8558C82.2859 64.9546 74.0992 73.1413 64.0003 73.1413C53.9015 73.1413 45.7148 64.9546 45.7148 54.8558C45.7148 51.5252 46.6053 48.4026 48.1611 45.7131Z" fill="#2D4C7C"/>
<path d="M13.7139 45.7129H38.1318C37.1209 48.5726 36.571 51.6498 36.571 54.8556C36.571 61.8805 39.2119 68.2885 43.5551 73.1411H41.1422C31.221 73.1411 22.7764 79.4624 19.6155 88.2962C16.5073 87.0317 13.6317 85.3796 11.0824 83.3335C4.19625 77.8064 0 69.6311 0 59.427C0 51.8533 6.13991 45.7129 13.7139 45.7129Z" fill="#2D4C7C"/>
<path d="M86.8581 73.1411C96.7789 73.1411 105.224 79.4622 108.385 88.2962C111.493 87.0317 114.369 85.3796 116.919 83.3335C123.804 77.8064 128 69.6311 128 59.427C128 51.8529 121.86 45.7129 114.286 45.7129H89.8688C90.8791 48.5726 91.4295 51.6498 91.4295 54.8556C91.4295 61.8805 88.7881 68.2885 84.4453 73.1411H86.8581Z" fill="#2D4C7C"/>
<path d="M99.5395 90.7696C100.204 92.3815 100.572 94.1479 100.572 95.9993C100.572 106.204 96.3752 114.379 89.4898 119.906C82.7122 125.346 73.6287 127.999 64.0007 127.999C54.3726 127.999 45.2893 125.346 38.5121 119.906C31.6259 114.379 27.4297 106.204 27.4297 95.9993C27.4297 94.1479 27.7968 92.3815 28.4621 90.7696C30.5179 85.7896 35.4215 82.2852 41.1436 82.2852H86.8576C92.58 82.2852 97.4833 85.7896 99.5395 90.7696Z" fill="#2D4C7C"/>
</svg>
