<svg width="129" height="129" viewBox="0 0 129 129" fill="none" xmlns="http://www.w3.org/2000/svg">
<path d="M72.2703 128.002L61.9359 103.719C71.8899 100.042 81.2098 95.0967 89.8324 89.3272L72.2703 128.002ZM24.7827 66.5661L0.5 56.2317L39.1748 38.6696C33.4053 47.2922 28.46 56.6121 24.7827 66.5661ZM126.035 2.46744C126.035 2.46744 94.6509 -10.98 58.7658 24.9115C44.8809 38.7964 36.5753 54.0761 31.1862 67.4538C29.411 72.2089 30.6156 77.4078 34.1027 80.9582L47.6072 94.3993C51.0942 97.9498 56.2931 99.091 61.0482 97.3158C74.6161 92.1169 89.7056 83.6211 103.59 69.7362C139.476 33.8511 126.035 2.46744 126.035 2.46744ZM81.2098 47.2922C76.2645 42.3469 76.2645 34.2949 81.2098 29.3496C86.1551 24.4043 94.2071 24.4043 99.1524 29.3496C104.034 34.2949 104.098 42.3469 99.1524 47.2922C94.2071 52.2375 86.1551 52.2375 81.2098 47.2922ZM45.3247 92.1169L36.3851 83.1773L45.3247 92.1169ZM28.5868 126.797L51.6648 103.719C49.5092 103.149 47.417 102.198 45.5149 100.866L19.6472 126.797H28.5868ZM1.70462 126.797H10.6442L40.8866 96.6184L31.8836 87.6788L1.70462 117.858V126.797ZM1.70462 108.855L27.6358 82.9871C26.3043 81.085 25.3533 79.0562 24.7827 76.8372L1.70462 99.9152V108.855Z" fill="#2D4C7C"/>
</svg>
